<mxfile host="65bd71144e">
    <diagram id="HIP3nbAZw_EuaXWnEj3U" name="Page-1">
        <mxGraphModel dx="1520" dy="989" grid="1" gridSize="10" guides="1" tooltips="1" connect="1" arrows="1" fold="1" page="1" pageScale="1" pageWidth="850" pageHeight="1100" math="0" shadow="0">
            <root>
                <mxCell id="0"/>
                <mxCell id="1" parent="0"/>
                <mxCell id="4" value="" style="shape=image;verticalLabelPosition=bottom;labelBackgroundColor=default;verticalAlign=top;aspect=fixed;imageAspect=0;image=data:image/png,iVBORw0KGgoAAAANSUhEUgAAAQAAAAKqCAYAAADVHYBzAAAAAXNSR0IArs4c6QAAFxJ0RVh0bXhmaWxlACUzQ214ZmlsZSUzRSUzQ2RpYWdyYW0lMjBpZCUzRCUyMkhJUDNuYkFad19FdWFYV25FajNVJTIyJTIwbmFtZSUzRCUyMlBhZ2UtMSUyMiUzRSUzQ214R3JhcGhNb2RlbCUyMGR4JTNEJTIyMzk5JTIyJTIwZHklM0QlMjIzOTAlMjIlMjBncmlkJTNEJTIyMSUyMiUyMGdyaWRTaXplJTNEJTIyMTAlMjIlMjBndWlkZXMlM0QlMjIxJTIyJTIwdG9vbHRpcHMlM0QlMjIxJTIyJTIwY29ubmVjdCUzRCUyMjElMjIlMjBhcnJvd3MlM0QlMjIxJTIyJTIwZm9sZCUzRCUyMjElMjIlMjBwYWdlJTNEJTIyMSUyMiUyMHBhZ2VTY2FsZSUzRCUyMjElMjIlMjBwYWdlV2lkdGglM0QlMjI4NTAlMjIlMjBwYWdlSGVpZ2h0JTNEJTIyMTEwMCUyMiUyMG1hdGglM0QlMjIwJTIyJTIwc2hhZG93JTNEJTIyMCUyMiUzRSUzQ3Jvb3QlM0UlM0NteENlbGwlMjBpZCUzRCUyMjAlMjIlMkYlM0UlM0NteENlbGwlMjBpZCUzRCUyMjElMjIlMjBwYXJlbnQlM0QlMjIwJTIyJTJGJTNFJTNDbXhDZWxsJTIwaWQlM0QlMjI5JTIyJTIwdmFsdWUlM0QlMjIlMjIlMjBzdHlsZSUzRCUyMmVkZ2VTdHlsZSUzRG5vbmUlM0JodG1sJTNEMSUzQiUyMiUyMGVkZ2UlM0QlMjIxJTIyJTIwcGFyZW50JTNEJTIyMSUyMiUyMHNvdXJjZSUzRCUyMjIlMjIlMjB0YXJnZXQlM0QlMjI2JTIyJTNFJTNDbXhHZW9tZXRyeSUyMHJlbGF0aXZlJTNEJTIyMSUyMiUyMGFzJTNEJTIyZ2VvbWV0cnklMjIlMkYlM0UlM0MlMkZteENlbGwlM0UlM0NteENlbGwlMjBpZCUzRCUyMjIlMjIlMjB2YWx1ZSUzRCUyMlN0YXJ0JTIyJTIwc3R5bGUlM0QlMjJzdHJva2VXaWR0aCUzRDIlM0JodG1sJTNEMSUzQnNoYXBlJTNEbXhncmFwaC5mbG93Y2hhcnQudGVybWluYXRvciUzQndoaXRlU3BhY2UlM0R3cmFwJTNCJTIyJTIwcGFyZW50JTNEJTIyMSUyMiUyMHZlcnRleCUzRCUyMjElMjIlM0UlM0NteEdlb21ldHJ5JTIweCUzRCUyMjIzMCUyMiUyMHklM0QlMjIzMTAlMjIlMjB3aWR0aCUzRCUyMjEwMCUyMiUyMGhlaWdodCUzRCUyMjYwJTIyJTIwYXMlM0QlMjJnZW9tZXRyeSUyMiUyRiUzRSUzQyUyRm14Q2VsbCUzRSUzQ214Q2VsbCUyMGlkJTNEJTIyMyUyMiUyMHZhbHVlJTNEJTIyU3RvcCUyMiUyMHN0eWxlJTNEJTIyc3Ryb2tlV2lkdGglM0QyJTNCaHRtbCUzRDElM0JzaGFwZSUzRG14Z3JhcGguZmxvd2NoYXJ0LnRlcm1pbmF0b3IlM0J3aGl0ZVNwYWNlJTNEd3JhcCUzQiUyMiUyMHBhcmVudCUzRCUyMjElMjIlMjB2ZXJ0ZXglM0QlMjIxJTIyJTNFJTNDbXhHZW9tZXRyeSUyMHglM0QlMjIyMzAlMjIlMjB5JTNEJTIyOTMwJTIyJTIwd2lkdGglM0QlMjIxMDAlMjIlMjBoZWlnaHQlM0QlMjI2MCUyMiUyMGFzJTNEJTIyZ2VvbWV0cnklMjIlMkYlM0UlM0MlMkZteENlbGwlM0UlM0NteENlbGwlMjBpZCUzRCUyMjExJTIyJTIwdmFsdWUlM0QlMjIlMjIlMjBzdHlsZSUzRCUyMmVkZ2VTdHlsZSUzRG5vbmUlM0JodG1sJTNEMSUzQiUyMiUyMGVkZ2UlM0QlMjIxJTIyJTIwcGFyZW50JTNEJTIyMSUyMiUyMHNvdXJjZSUzRCUyMjUlMjIlMjB0YXJnZXQlM0QlMjI4JTIyJTNFJTNDbXhHZW9tZXRyeSUyMHJlbGF0aXZlJTNEJTIyMSUyMiUyMGFzJTNEJTIyZ2VvbWV0cnklMjIlMkYlM0UlM0MlMkZteENlbGwlM0UlM0NteENlbGwlMjBpZCUzRCUyMjUlMjIlMjB2YWx1ZSUzRCUyMmVudGVyJTIwaW50ZWdlciUyMDIlMjIlMjBzdHlsZSUzRCUyMnNoYXBlJTNEcGFyYWxsZWxvZ3JhbSUzQnBlcmltZXRlciUzRHBhcmFsbGVsb2dyYW1QZXJpbWV0ZXIlM0J3aGl0ZVNwYWNlJTNEd3JhcCUzQmh0bWwlM0QxJTNCZml4ZWRTaXplJTNEMSUzQiUyMiUyMHZlcnRleCUzRCUyMjElMjIlMjBwYXJlbnQlM0QlMjIxJTIyJTNFJTNDbXhHZW9tZXRyeSUyMHglM0QlMjIyMjAlMjIlMjB5JTNEJTIyNTMwJTIyJTIwd2lkdGglM0QlMjIxMjAlMjIlMjBoZWlnaHQlM0QlMjI2MCUyMiUyMGFzJTNEJTIyZ2VvbWV0cnklMjIlMkYlM0UlM0MlMkZteENlbGwlM0UlM0NteENlbGwlMjBpZCUzRCUyMjEwJTIyJTIwdmFsdWUlM0QlMjIlMjIlMjBzdHlsZSUzRCUyMmVkZ2VTdHlsZSUzRG5vbmUlM0JodG1sJTNEMSUzQiUyMiUyMGVkZ2UlM0QlMjIxJTIyJTIwcGFyZW50JTNEJTIyMSUyMiUyMHNvdXJjZSUzRCUyMjYlMjIlMjB0YXJnZXQlM0QlMjI1JTIyJTNFJTNDbXhHZW9tZXRyeSUyMHJlbGF0aXZlJTNEJTIyMSUyMiUyMGFzJTNEJTIyZ2VvbWV0cnklMjIlMkYlM0UlM0MlMkZteENlbGwlM0UlM0NteENlbGwlMjBpZCUzRCUyMjYlMjIlMjB2YWx1ZSUzRCUyMmVudGVyJTIwaW50ZWdlciUyMDElMjIlMjBzdHlsZSUzRCUyMnNoYXBlJTNEcGFyYWxsZWxvZ3JhbSUzQnBlcmltZXRlciUzRHBhcmFsbGVsb2dyYW1QZXJpbWV0ZXIlM0J3aGl0ZVNwYWNlJTNEd3JhcCUzQmh0bWwlM0QxJTNCZml4ZWRTaXplJTNEMSUzQiUyMiUyMHZlcnRleCUzRCUyMjElMjIlMjBwYXJlbnQlM0QlMjIxJTIyJTNFJTNDbXhHZW9tZXRyeSUyMHglM0QlMjIyMjAlMjIlMjB5JTNEJTIyNDIwJTIyJTIwd2lkdGglM0QlMjIxMjAlMjIlMjBoZWlnaHQlM0QlMjI2MCUyMiUyMGFzJTNEJTIyZ2VvbWV0cnklMjIlMkYlM0UlM0MlMkZteENlbGwlM0UlM0NteENlbGwlMjBpZCUzRCUyMjEzJTIyJTIwdmFsdWUlM0QlMjIlMjIlMjBzdHlsZSUzRCUyMmVkZ2VTdHlsZSUzRG5vbmUlM0JodG1sJTNEMSUzQiUyMiUyMGVkZ2UlM0QlMjIxJTIyJTIwcGFyZW50JTNEJTIyMSUyMiUyMHNvdXJjZSUzRCUyMjclMjIlMjB0YXJnZXQlM0QlMjIzJTIyJTNFJTNDbXhHZW9tZXRyeSUyMHJlbGF0aXZlJTNEJTIyMSUyMiUyMGFzJTNEJTIyZ2VvbWV0cnklMjIlMkYlM0UlM0MlMkZteENlbGwlM0UlM0NteENlbGwlMjBpZCUzRCUyMjclMjIlMjB2YWx1ZSUzRCUyMmluY3JlbWVudCUyMGNvdW50ZXIlMjBieSUyMDElMjIlMjBzdHlsZSUzRCUyMnNoYXBlJTNEcGFyYWxsZWxvZ3JhbSUzQnBlcmltZXRlciUzRHBhcmFsbGVsb2dyYW1QZXJpbWV0ZXIlM0J3aGl0ZVNwYWNlJTNEd3JhcCUzQmh0bWwlM0QxJTNCZml4ZWRTaXplJTNEMSUzQiUyMiUyMHZlcnRleCUzRCUyMjElMjIlMjBwYXJlbnQlM0QlMjIxJTIyJTNFJTNDbXhHZW9tZXRyeSUyMHglM0QlMjIyMDAlMjIlMjB5JTNEJTIyNzcwJTIyJTIwd2lkdGglM0QlMjIxNjAlMjIlMjBoZWlnaHQlM0QlMjI2MCUyMiUyMGFzJTNEJTIyZ2VvbWV0cnklMjIlMkYlM0UlM0MlMkZteENlbGwlM0UlM0NteENlbGwlMjBpZCUzRCUyMjEyJTIyJTIwdmFsdWUlM0QlMjIlMjIlMjBzdHlsZSUzRCUyMmVkZ2VTdHlsZSUzRG5vbmUlM0JodG1sJTNEMSUzQiUyMiUyMGVkZ2UlM0QlMjIxJTIyJTIwcGFyZW50JTNEJTIyMSUyMiUyMHNvdXJjZSUzRCUyMjglMjIlMjB0YXJnZXQlM0QlMjI3JTIyJTNFJTNDbXhHZW9tZXRyeSUyMHJlbGF0aXZlJTNEJTIyMSUyMiUyMGFzJTNEJTIyZ2VvbWV0cnklMjIlMkYlM0UlM0MlMkZteENlbGwlM0UlM0NteENlbGwlMjBpZCUzRCUyMjglMjIlMjB2YWx1ZSUzRCUyMndoaWxlJTI2bHQlM0JiciUyNmd0JTNCY291bnRlciUyNmFtcCUzQmx0JTNCcG9zaXRpdmUlMjBpbnRlZ2VyJTIyJTIwc3R5bGUlM0QlMjJyaG9tYnVzJTNCd2hpdGVTcGFjZSUzRHdyYXAlM0JodG1sJTNEMSUzQiUyMiUyMHZlcnRleCUzRCUyMjElMjIlMjBwYXJlbnQlM0QlMjIxJTIyJTNFJTNDbXhHZW9tZXRyeSUyMHglM0QlMjIyMzAlMjIlMjB5JTNEJTIyNjIwJTIyJTIwd2lkdGglM0QlMjIxMDAlMjIlMjBoZWlnaHQlM0QlMjIxMDAlMjIlMjBhcyUzRCUyMmdlb21ldHJ5JTIyJTJGJTNFJTNDJTJGbXhDZWxsJTNFJTNDbXhDZWxsJTIwaWQlM0QlMjIxNCUyMiUyMHZhbHVlJTNEJTIyJTIyJTIwc3R5bGUlM0QlMjJlbmRBcnJvdyUzRGNsYXNzaWMlM0JodG1sJTNEMSUzQmVudHJ5WCUzRDElM0JlbnRyeVklM0QwLjUlM0JlbnRyeUR4JTNEMCUzQmVudHJ5RHklM0QwJTNCZW50cnlQZXJpbWV0ZXIlM0QwJTNCJTIyJTIwZWRnZSUzRCUyMjElMjIlMjBwYXJlbnQlM0QlMjIxJTIyJTIwdGFyZ2V0JTNEJTIyMyUyMiUzRSUzQ214R2VvbWV0cnklMjB3aWR0aCUzRCUyMjUwJTIyJTIwaGVpZ2h0JTNEJTIyNTAlMjIlMjByZWxhdGl2ZSUzRCUyMjElMjIlMjBhcyUzRCUyMmdlb21ldHJ5JTIyJTNFJTNDbXhQb2ludCUyMHglM0QlMjIzMzAlMjIlMjB5JTNEJTIyNjcwJTIyJTIwYXMlM0QlMjJzb3VyY2VQb2ludCUyMiUyRiUzRSUzQ214UG9pbnQlMjB4JTNEJTIyMzgwJTIyJTIweSUzRCUyMjYyMCUyMiUyMGFzJTNEJTIydGFyZ2V0UG9pbnQlMjIlMkYlM0UlM0NBcnJheSUyMGFzJTNEJTIycG9pbnRzJTIyJTNFJTNDbXhQb2ludCUyMHglM0QlMjI0MDAlMjIlMjB5JTNEJTIyNjcwJTIyJTJGJTNFJTNDbXhQb2ludCUyMHglM0QlMjI0MDAlMjIlMjB5JTNEJTIyOTYwJTIyJTJGJTNFJTNDJTJGQXJyYXklM0UlM0MlMkZteEdlb21ldHJ5JTNFJTNDJTJGbXhDZWxsJTNFJTNDbXhDZWxsJTIwaWQlM0QlMjIxNSUyMiUyMHZhbHVlJTNEJTIybm8lMjIlMjBzdHlsZSUzRCUyMnRleHQlM0JodG1sJTNEMSUzQmFsaWduJTNEY2VudGVyJTNCdmVydGljYWxBbGlnbiUzRG1pZGRsZSUzQnJlc2l6YWJsZSUzRDAlM0Jwb2ludHMlM0QlNUIlNUQlM0JhdXRvc2l6ZSUzRDElM0JzdHJva2VDb2xvciUzRG5vbmUlM0JmaWxsQ29sb3IlM0Rub25lJTNCJTIyJTIwdmVydGV4JTNEJTIyMSUyMiUyMHBhcmVudCUzRCUyMjElMjIlM0UlM0NteEdlb21ldHJ5JTIweCUzRCUyMjMyMCUyMiUyMHklM0QlMjI2NDUlMjIlMjB3aWR0aCUzRCUyMjQwJTIyJTIwaGVpZ2h0JTNEJTIyMzAlMjIlMjBhcyUzRCUyMmdlb21ldHJ5JTIyJTJGJTNFJTNDJTJGbXhDZWxsJTNFJTNDbXhDZWxsJTIwaWQlM0QlMjIxNiUyMiUyMHZhbHVlJTNEJTIyJTIyJTIwc3R5bGUlM0QlMjJlbmRBcnJvdyUzRGNsYXNzaWMlM0JodG1sJTNEMSUzQmV4aXRYJTNEMCUzQmV4aXRZJTNEMC41JTNCZXhpdER4JTNEMCUzQmV4aXREeSUzRDAlM0JlbnRyeVglM0QwJTNCZW50cnlZJTNEMC41JTNCZW50cnlEeCUzRDAlM0JlbnRyeUR5JTNEMCUzQiUyMiUyMGVkZ2UlM0QlMjIxJTIyJTIwcGFyZW50JTNEJTIyMSUyMiUyMHNvdXJjZSUzRCUyMjclMjIlMjB0YXJnZXQlM0QlMjI4JTIyJTNFJTNDbXhHZW9tZXRyeSUyMHdpZHRoJTNEJTIyNTAlMjIlMjBoZWlnaHQlM0QlMjI1MCUyMiUyMHJlbGF0aXZlJTNEJTIyMSUyMiUyMGFzJTNEJTIyZ2VvbWV0cnklMjIlM0UlM0NteFBvaW50JTIweCUzRCUyMjE3MCUyMiUyMHklM0QlMjI3OTAlMjIlMjBhcyUzRCUyMnNvdXJjZVBvaW50JTIyJTJGJTNFJTNDbXhQb2ludCUyMHglM0QlMjIyMjAlMjIlMjB5JTNEJTIyNzQwJTIyJTIwYXMlM0QlMjJ0YXJnZXRQb2ludCUyMiUyRiUzRSUzQ0FycmF5JTIwYXMlM0QlMjJwb2ludHMlMjIlM0UlM0NteFBvaW50JTIweCUzRCUyMjE2MCUyMiUyMHklM0QlMjI4MDAlMjIlMkYlM0UlM0NteFBvaW50JTIweCUzRCUyMjE2MCUyMiUyMHklM0QlMjI2NzAlMjIlMkYlM0UlM0MlMkZBcnJheSUzRSUzQyUyRm14R2VvbWV0cnklM0UlM0MlMkZteENlbGwlM0UlM0NteENlbGwlMjBpZCUzRCUyMjE3JTIyJTIwdmFsdWUlM0QlMjJ5ZXMlMjIlMjBzdHlsZSUzRCUyMnRleHQlM0JodG1sJTNEMSUzQmFsaWduJTNEY2VudGVyJTNCdmVydGljYWxBbGlnbiUzRG1pZGRsZSUzQnJlc2l6YWJsZSUzRDAlM0Jwb2ludHMlM0QlNUIlNUQlM0JhdXRvc2l6ZSUzRDElM0JzdHJva2VDb2xvciUzRG5vbmUlM0JmaWxsQ29sb3IlM0Rub25lJTNCJTIyJTIwdmVydGV4JTNEJTIyMSUyMiUyMHBhcmVudCUzRCUyMjElMjIlM0UlM0NteEdlb21ldHJ5JTIweCUzRCUyMjI4MCUyMiUyMHklM0QlMjI3MjUlMjIlMjB3aWR0aCUzRCUyMjQwJTIyJTIwaGVpZ2h0JTNEJTIyMzAlMjIlMjBhcyUzRCUyMmdlb21ldHJ5JTIyJTJGJTNFJTNDJTJGbXhDZWxsJTNFJTNDJTJGcm9vdCUzRSUzQyUyRm14R3JhcGhNb2RlbCUzRSUzQyUyRmRpYWdyYW0lM0UlM0MlMkZteGZpbGUlM0VNsZFrAAAgAElEQVR4Xu19C7yOVdr+xU7HcWhs+RxKscUgOpmkMZOMrVJqSpOUSDVfzXzp/8X3Jb5ITWiy/SY6Dsa5SIrQly0UKqIiKrITnZDd55hj9N/36n33vLb9vus5H951rd9vT2Pvte51r+u+1/Vcz3qetZ4KYIkyApUB1CrzUyXCDu8CsLnMz+4I+2u8axWMRyBaAFwI4EoAHQE0BhDlyW4VOSGFtQDmAHgNwAqrDVnPfwRIAP5jrOtBJnzy56zUyqeccgpq1ap11E+1atV09kL7+44dO7B58+ajfn744Yey/nyRIAIhA/lhCREBEkB44N8OoC+AvKQL9erVw5VXXql+2rRpg6pVq4bnnUc979y5E4sXL8Zrr72mfjZt2pRquQjAUABjPOqOZmwiQAKwCZgH1TsnJv4FYuvCCy8snfQXXXSRB+ajbWLZsmWlZLBiRendwPsJIngp2t5nn3ckgOBimp+Y+G2ly0aNGqFv377o0aNHcB5ErKdx48Zh6NChWLduXdKzhQkiKIyYq1nrDgkgmND+N4DHpCu5p7///vtx7733BtNzDHoZMWKEIgJZP0iU+wH8LQaux95FEoD/IRwNQO73MXDgQPTv3x+VKlXyv9eY9XDo0CE8+uijGDRoUNJzWRe4I2bDiJ27JAD/QiYr+uMBtJEJL3K3a9eu/vWWJZaff/55dVskhABgMYDuJT/y5IDFBwRIAD6ACkDu818AULNJkyYYP368WuxjsYaALA52794dn3zyiTTYCuAmALI+wOIxAiQAjwEFUD9x5ap97bXXqslfpUo2vM/jPVCZLO7atUuRwIwZM6Tat6KkAGwI1ovs740E4G2McxKT/+JOnTph5syZ3lo30No111yDV199VUb+boIEDhsIg29DJgF4C63I/i4tWrRQL79Uriyv8rO4QWD37t3qpahVq1aJmSmJ2wE3Jtk2BQESgHfpIG+03S+v6srkb9asmXeWDbf08ccf4ze/+Q3kVePE41R5g5LFAwRIAB6ACOBaAK+IqTlz5qg3+1i8RUBeI+7YUfZIqfIHAGpxgMUdAiQAd/glW8s7rRcMGzYMvXv39sYirRyDQEFBAfr06SO/l1eH+VjFgxwhAbgH8a6Sx33PNG7cGJ9++ql7a7SQEYFf/epXWLtWdhfjbgDPEi53CJAA3OFXKScn58vDhw//26RJk3DzzTe7s8bWWgQmT56MW265BTk5OVsOHz58BgD1xhCLMwRIAM5wS7aS91YHtG3bFgsWLHBnia0tI3DZZZdh4UL1XtDD8oa15YaseAwCJADnSSEncxQDyJk/fz4kKVmCQUDw/v3vfy+dyTsBuQDU4wEW+wiQAOxjlmzRreStvwnt27dHYSF3rzqH0VnL/Px8zJs3TxrfCmCiMytsRQJwngMvArhBtrLec889zq2wpSMERo4ciV69eknbaQD+6MgIG4EE4CwJjqtYseIPR44cOf6LL77AmWee6cwKWzlGYOPGjTjrrLNQsWLFg0eOHDkFwI+OjRnckATgLPjyIsrLF198Md555x1nFtjKNQKtW7fGu+/KFgFcl3wRy7VRwwyQAJwF/J8Abhs8eDAeeOABZxbYyjUCQ4YMQb9+/cTOWAA9XRs00AAJwFnQvyw5yfb01atX851/Z/h50mrNmjU455xzxNZXAOSdABabCJAAbAKWqC73mzkHDhzA8ccf78yCT62WL1+uzhzctm0bDh48iJNPPlkdsyXbk6W0atUKS5cutd2703a2O7LRQMZ3wgknSAt5HHicjaasmkCABGA/FeRTXd+edtpp2LpVDquJVqlTpw6mTZsGuT+WsmjRIrU5SRYra9SogdzcXBQXy+sL9orTdvZ6sV+7Zs2a+O6776Rh7cQnyewbMbgFCcB+8OU8/xXnnnsuPvzwQ/utfWzx448/Qr4m9Prrr0PeTkwWUSpypezWrRvkVVohh6lTp+J///d/IY/TcnJyINuYJ06cCCGQDz74AD179kTz5s2xYcMGtdqe2k7qRKWcd955WLlypbgjm4NkkxCLDQRIADbASlS9GsCrclWVrb9RK48//jgefvhhXHHFFejQoYP6b+3acnGEuvLXrVsX+/fvx/bt25GXl6c21ogy+M///E91y/DUU09B1jZE8gs5CBGktovaeGWLsGwVBiD3OLOi5l/U/SEB2I/Qv8sutDvuuAOjRo2y3zqAFl9++aV6O1Hk/9y5c9G5c2c8+eST+P7770sJoKwbU6ZMwdixY1V9WVxr2bIl9uzZo9RBlAngzjvvxOjRcvI6ZFfmcwHAm1VdkADsh1M2nzw0YMCA1DPs7VsJqIV8nFNOJJazCuTTY0kFcPjwYbW3XhYN5fZAFg1lXeONN95QBCDq4ZtvvjlGOQTktuVu5FsLongkJgBKPypg2YDhFUkA9hMgsgpAZL18fFPWJ1KL7Fe44YYbcN1115USgNzT//3vf8fbb7+tnmTI6cWyBpAkgMsvvxxff/115AmACsB+Aqe2IAHYxy+yawCyGCaLf7NmzVJn6EmRdYobb7wRcta+fJasevXq2Lt3r7p9EbkvJ+4Kcfzxj3+EqAV5s1EUQCoByBd+k+2i9tiTawD2E5gE4A6zyD4FkGHJ5JdPbG3ZsgU//fSTWtUXmSySXorsolu/fj3GjBmj3qLbt28f5LPkyXcF/vKXv+Cqq646igBS202fPh3nn3++OwQ9bM2nAO7ApAKwj1+k3wOwP5x4t+B7AO7iRwJwhl9k3wR0Npx4tuKbgO7jRgJwhiH3AjjDzdNW3AvgHk4SgDMMuRvQGW6etuJuQPdwkgCcYcjzAJzh5mkrngfgHk4SgDMMeSKQM9w8a8UTgbyBkgTgHEeeCegcO9cteSagawiVARKAcxx5KrBz7Fy35KnAriEkAbiEsPS7APL6bLt27VyaY3OrCMhHWBJ487sAVkFLU48KwB2A/DKQO/wcteaXgRzBVm4jEoA7LPltQHf42W7NbwPahixjAxKAezz5dWD3GFq2wK8DW4bKUkUSgCWYtJVWlOzDuUD23Pfu3VtbmRWcIVBQUKDOMEgc/SVHgLG4RIAE4BLARPNrkx+mkO23clwYi7cIyLFfsvU3UeRFrBne9mCmNRKAd3EfCuB+OVxzyZIlaNq0qXeWDbck7/y3adMGO3aojwA/BqCv4ZB4NnwSgGdQKkMvAOjSokULLF68GJUrV/bWuoHWdu/erSb/qlWrZPRTANxkIAy+DZkE4C20OQAWA7hYPsQxc+ZMb60baO2aa65RpxYBkI8Atkl8BMRAJPwZMgnAe1zrJ0ig9rXXXqvO2qtSpYr3vWS5xV27dqF79+6YMUPd6n+bmPwbsnzYgQ+PBOAP5PJVDrkdqNmkSRNFAnIyL4s1BOT8Qpn8n3zyiTSQzy+J7F9orTVr2UGABGAHLXt1zwIwXq5clSpVwrhx49C1a1d7Fgys/fzzz6NHjx44dOiQjF5up7qX/HxhIBSBDJkE4D/M8tWK26UbOZyzf//+EEJgORoBmfBymKkcTpooYwDcQZz8RYAE4C++Sev/nXh8pY7m7tu3L3r16hVMzzHo5YknnsBjjz2GzZs3J729H8DfYuB67F0kAQQXwvzE82v11c5GjRopIhC5a2qR26KhQ4di3bp1SQjkPl/epyg0FZOgx00CCBpxoHOCCOT7AmpxUN4clB/5dFe2l2XLlqmPecqPLPYlinzVVyb+S9k+/qiNjwQQXkRkXUDeaMtLuiAf6EiSgbz8UrVq1fC886hn+aqQvBSVnPTy6bKUUpSY+HK/zxICAiSAEEAv06VsHEj+yJOD0nLKKaeoNYPUH3nVOKpFXtWV+/jUH/ncWJkiK/ryPe/kT1SHY4RfJIBohVleFhAykF0vjQFkwxtEu0pej14rnylMTPpS3R8t6M30hgQQ7bjLZgL5FFnqj5ekIJ/Ulh+vikx2WcpP/dntlXHa8R4BEoD3mMbJ4k88GDZO4fLeVxKA95jGySIJIE7R8sFXEoAPoMbIJAkgRsHyw1USgB+oxscmCSA+sfLFUxKAL7DGxigJIDah8sdREoA/uMbFKgkgLpHyyU8SgE/AxsQsCSAmgfLLTRKAX8jGwy4JIB5x8s1LEoBv0MbCMAkgFmHyz0kSgH/YxsEyCSAOUfLRRxKAj+DGwDQJIAZB8tNFEoCf6EbfNgkg+jHy1UMSgK/wRt44CSDyIfLXQRKAv/hG3ToJIOoR8tk/EoDPAEfcPAkg4gHy2z0SgN8IR9s+CSDa8fHdOxKA7xBHugMSQKTD479zJAD/MY5yDySAKEcnAN9IAAGAHOEuSAARDk4QrpEAgkA5un2QAKIbm0A8IwEEAnNkOyEBRDY0wThGAggG56j2QgKIamQC8osEEBDQEe2GBBDRwATlFgkgKKSj2Q8JIJpxCcwrEkBgUEeyIxJAJMMSnFMkgOCwjmJPJIAoRiVAn0gAAYIdwa5IABEMSpAukQCCRDt6fZEAoheTQD0iAQQKd+Q6IwFELiTBOkQCCBbvqPVGAohaRAL2hwQQMOAR644EELGABO0OCSBoxKPVHwkgWvEI3BsSQOCQR6pDEkCkwhG8MySA4DGPUo8kgChFIwRfSAAhgB6hLkkAEQpGGK6QAMJAPTp9kgCiE4tQPCEBhAJ7ZDolAUQmFOE4QgIIB/eo9EoCiEokQvKDBBAS8BHplgQQkUCE5QYJICzko9EvCSAacQjNCxJAaNCH0nFvAA8D6AfgCQBJArgXwBAADwIoCMUzdhoKAiSAUGAPrdPKAL4HsKeEBA4CqAngOwCVAPwCQHUAu0Pzjh0HjgAJIHDIQ+9QrvR9AByXmOxCCj+WEMAwAA+E7h0dCBQBEkCgcEeiM5nw20ok/wkp3hwAUINX/0jEJ1AnSACBwh2ZzkQFyHqASP9Dift+Xv0jE57gHCEBBId1lHpKVQG8+kcpMgH7QgIIGPAIdZdcC+C9f4SCErQrJICgEY9Of6ICxgK4jff+0QlK0J6QAPxDvHJeXt7qoqKiev51Qct2EMjLy9tUVFR0pp022V6XBOBfhLu1b99+ZGFhYVX/uqBlqwhMnDgR991338Li4uLLrLYxoR4JwKco5+bmzi8oKLjs1ltv9akHmrWDQIcOHXYWFhb2AjDBTrtsr0sC8CfCcn+9a9euXahcWf4vS5gI7N69G1WqVBEX5H/4pmNKMEgA/mRmt/z8/JFz586l/PcHX1tWKf/Tw0UCsJVK1ipT/lvDKahalP8kgKByTfqh/A8SbU1flP+ZAaIC8D5ZKf+9x9SxxYT8X1BcXNzOsZEsbkgC8Di4lP8eA+rSHOU/FYDLFLLVnPLfFlz+Vqb81+NLBaDHyE4Nyn87aPlcl/JfDzAJQI+R5RqU/5ahCqQi5b8eZhKAHiOrNSj/rSIVQD3Kf2sgkwCs4WSlFuW/FZQCqkP5bw1oEoA1nLS1KP+1EAVagfLfGtwkAGs46WpR/usQCvDvlP/WwSYBWMcqU03Kf29w9MQK5b91GEkA1rFKW5Py3wMQPTRB+W8dTBKAdazS1aT8d4+hZxYo/+1BSQKwh1d5tW/Nz88fwa2/7oH0wgLlvz0USQD28DqmNuW/SwA9bk75bw9QEoA9vMrWpvx3h5+nrSn/7cNJArCPWWoLyn93+HnamvLfPpwkAPuYlbYQ+T98+PDLunXr5sIKm3qFAOW/fSRJAPYxS7ag/HeOnectKf+dQUoCcIabtPJd/rdq1QpLly517OGKFSvQpUsXFBUVaW247UvbQYYKH330EQYOHIgZM2Zg27ZtyM3NtW2O8t82ZKoBCcAZbpKkvst/mQjFxcUOPfy52eHDh5GTk6O14UVf2k7SVLjpppvQo0cPdOzYEVu2bHFEAJT/ztAnATjDzZb8nzNnDh566CFUrFgRp556KkaNGoXTTz8dq1atUonfuXNnTJs2DTt27MBzzz2HDh06QNYVJk+ejNatW2Pq1KlYuXJluTY++OAD9OzZE82bN8eGDRuwZMmS0hGlKgAv+hLDjzzyCORqW6dOHcjEHTx4MDZu3Kj6TDfOTD6mwn/cccc5IgDKf2dJTAXgHDfL8l+uaM2aNcN7772H+vXr4+mnn1YTRX7WrFmDli1bYtKkSbj++usxbtw4RQ5vv/22uvLXrVsX+/fvV5MinY3Vq1dD5PvIkSMVEaSWVALwoi+x0bZtW6xdu1YRmRCXyHe5xXDqoxcEQPnvPJGpABxgZ0f+T5gwQV3dZ82apXras2cPqlWrhn379mHdunXqCi9fEJIik+nqq6/Gpk2bjiIAnQ0hEbFbVuqXJQC3fY0ZMwbz5s3D9OnTlb+iTPr3768IwKmPXhAA5b+DJE40IQHYx86W/B82bJiSyWecccZRPc2dO1cteF1++eX4+uuv1d/kCpv8d6oC0NmQW4ZvvvnmmJGUJQC3fQkByG3G6NGjVV/vvPMO5NuHQgBOfXRLAJT/9hM4tQUJwD5+luW/mBZ5P2XKFMyePfuYnlInfCYCsGMj0y2AFQLI1NdTTz2Ft956Cy+++KLqRv7br18/RQBOfXRLAJT/9hOYBOACMzvyX7rZunUrmjZtqh7n5eXl4c0331RXSyGETASwc+dOVK9eHXv37sX27dst23BCAFb7Wr58OTp16qRuXeSjp/KI8f3331cEYGec6eB3sghI+e8imfkY0DZ4tuR/0ros+A0YMED9s1KlSmoh8Pzzz89IAFI3Pz8f69evV/fcmzdvtmTDCQFY7Uvq9enTRz2vb9CggSIDeWohaxdSrI4z1Ucht3POOUf9Sm5jatWqpZ6WfPjhh6hRo0bGAFH+287fYxrwFsAehrbkvz3T0a8takQeM8qTACGygoICRWJjx44NxXnKf/ewkwBsYGhX/tswHYuq8lLRXXfdhUWLFqlbALlCy8Jg7dq1Q/Gf8t897CQA6xg6kv/WzbOmHQQo/+2glb4uCcA6jkbLf+swBVOT8t8bnEkAFnE0Xf5bhCmwapT/3kBNArCGI+W/NZwCqUX57x3MJABrWFL+W8MpkFry2nHv3r0XFBcXtwukwyzuhARgIbiU/xZACrAK5b93YJMA9FhS/usxCqwG5b+3UJMA9HhS/usxCqwG5b+3UJMANHhS/nubcG6tJeT/PQAmurXF9jwSTJcDlP86hAL8O+W/92BTAWTGlPLf+5xzbJHy3zF0aRuSADJgSvnvfcK5sUj57wa98tuSANJjSvnvfb45tkj57xi6jA1JAOnhofz3J+ccWaX8dwSbthEJIA1ElP/a3Am0AuW/P3CTAMrHlfLfn3xzZJXy3xFslhqRAMqHifLfUvoEU4ny3z+cSQDlYEv571/CObFM+e8ENWttSADH4kT5by13AqlF+e8vzCSAY/Gl/Pc352xZp/y3BZftyiSAMpDl5uYuGD58eFv5OCdL+AhQ/vsbAxLA0fhS/vubb7asU/7bgstRZRLA0bBR/jtKI38aUf77g2uqVRJAChqU//4nnJ0e8vPzd86bN49bf+2AZrMuCSAFsLy8vI1FRUX1bGLI6j4h0KBBg42ff/55cwC7ferCeLMkALNT4Cd+H9LsBCABmB1/EoDZ8QcJwOwEIAGYHX8SgOHxJwEYngBUAGYnAAnA7PhTARgefxKA4QlABWB2ApAAzI4/FYDh8ScBGJ4AVABmJwAJwOz4UwEYHn8SgOEJQAVgdgKQAMyOPxWA4fEnARieAFQAZicACcDs+FMBGB5/EoDhCUAFYHYCkADMjj8VgOHxJwEYngBUAGYnAAnA7PhTARgefxKA4QlABWB2ApAAzI4/FYDh8ScBGJ4AVABmJwAJwOz4UwEYHn8SgOEJQAVgdgKQAMyOPxWA4fEnARieAFQAZicACcDs+FMBGB5/EoDhCUAFYHYCkADMjj8VgOHxJwEYngBUAGYnAAnA7PhTARgefxKA4QlABWB2ApAAzI4/FYDh8ScBGJ4AVABmJwAJwOz4UwEYHn8SgOEJQAVgdgKQAMyOPxWA4fEnARieAFQAZicACcDs+FMBGB5/EoDhCUAFYHYCkADMjj8VgOHxJwEYngBUAGYnAAnA7PhTARgW/94AHgbQD8ATAJIEcC+AIQAeBFBgGCZGD5cKwKzwVwbwPYA9JSRwEEBNAN8BqATgFwCqA9htFiRmj5YEYF785UrfB8BxickupPBjCQEMA/CAeXCYPWISgHnxlwm/rUTyn5Ay9AMAavDqb14ykADMi7mMWFSArAeI9D+UuO/n1d/AXCABGBj0kgmfqgJ49TczB9SoSQDmBj+5FsB7f3NzgARgcOxFBYwFcBvv/c3NAioA/2JfOS8vb3VRUVE9/7qgZTsI5OXlbSoqKjrTTptsr0sC8C/C3dq3bz+ysLCwqn9d0LJVBCZOnIj77rtvYXFx8WVW25hQjwTgU5Rzc3PnFxQUXHbrrbf61APN2kGgQ4cOOwsLC3sBmGCnXbbXJQH4E2G5v961a9cuVK4s/5clTAR2796NKlWqiAvyP3zTMSUYJAB/MrNbfn7+yLlz51L++4OvLauU/+nhIgHYSiVrlSn/reEUVC3KfxJAULkm/VD+B4m2pi/K/8wAUQF4n6yU/95j6thiQv4vKC4ubufYSBY3JAF4HFzKf48BdWmO8p8KwGUK2WpO+W8LLn8rU/7r8aUC0GNkpwblvx20fK5L+a8HmASgx8hyDcp/y1AFUpHyXw8zCUCPkdUalP9WkQqgHuW/NZBJANZwslKL8t8KSgHVofy3BjQJwBpO2lqU/1qIAq1A+W8NbhKANZx0tSj/dQgF+HfKf+tgkwCsY5WpJuW/Nzh6YoXy3zqMJADrWKWtSfnvAYgemqD8tw4mCcA6VulqUv67x9AzC5T/9qAkAdjDq7zat+bn54/g1l/3QHphgfLfHookAHt4HVOb8t8lgB43p/y3BygJwB5eZWtT/rvDz9PWlP/24SQB2McstQXlvzv8PG1N+W8fThKAfcxKW4j8Hz58+GXdunVzYYVNvUKA8t8+kiQA+5glW1D+O8fO85aU/84gJQE4w01a+S7/W7VqhaVLlzr2cMWKFejSpQuKioq0Ntz2pe0gQ4UXXngBDz/8MPbt24fTTz8do0aNQuPGjW2ZpPy3BVdpZRKAM9wQhPzPzc1FcXGxQw9/bnb48GHk5ORobXjRl7aTcioIOf3617/GsmXL0LBhQwwZMgRvvPEG5s+fb8sc5b8tuEgAzuAqbWVL/s+ZMwcPPfQQKlasiFNPPVVd4eRKt2rVKvTo0QOdO3fGtGnTsGPHDjz33HPo0KEDZF1h8uTJaN26NaZOnYqVK1eWa+ODDz5Az5490bx5c2zYsAFLliwpdTJVAXjRlxh+5JFHIFfbOnXq4KabbsLgwYOxceNG1We6cWbyUb6d8NVXX6Fp06bKhozz6quvVr+zWij/rSJ1bD0qAGfYWZb/W7ZsQbNmzfDee++hfv36ePrpp9VEkZ81a9agZcuWmDRpEq6//nqMGzdOkcPbb7+trvx169bF/v37kcnG6tWrIfJ95MiRighSSyoBeNGX2Gjbti3Wrl2riEyI66OPPlK3GE59LAv/sGHDIH5PmTLFcmQo/y1DdUxFEoAD7OzI/wkTJqir+6xZs1RPe/bsQbVq1dT97rp169QVXq6CUmQyydVv06ZNRxGAzoaQiNgtK/XLEoDbvsaMGYN58+Zh+vTpyl9RJv3791cE4NTHVPgXLlyI2267DYsWLcIZZ5xhOTKU/5ahIgE4h8qZ/Jcrmsjksgk9d+5cbNu2DZdffjm+/vprZVyusMl/pyoAnQ25Zfjmm2+OGVpZAnDblxCA3GaMHj1a9fXOO+9Avn0oBODUx6TTr7zyCvr06YOZM2cqxWS1UP5bRar8elQA9vGzLP/FtMh7kbOzZ88+pqfUCZ+JAOzYyHQLYIUAMvX11FNP4a233sKLL76oupH/9uvXTxGAUx/Fzuuvv457770XQopnnmnv692U//YTOLUFCcAmfnbkv5jeunWrWuCSx3l5eXl488031dVSCCETAezcuRPVq1fH3r17sX37dss2nBCA1b6WL1+OTp06qVsX+eipPGJ8//33FQHYGWeqj3L706RJExQWFqr/2i2U/3YRO7o+CcAefrZW/5OmZcFvwIAB6p+VKlVSC4Hnn39+RgKQuvn5+Vi/fr265968ebMlG04IwGpfUk9k+owZM9CgQQNFBvLUQtYupFgdZ6qP48ePx5133onTTjvtqEjI4qYsNGYqlP/2kre82iQAexjakv/2TEe/tqgRecwoTwKEyAoKChSJjR07NhTnKf/dw04CsIGhXflvw3QsqspLRXfddZdapZdbgBo1akAWBmvXrh2K/5T/7mEnAVjH0JH8t26eNe0gQPlvB630dUkA1nE0Wv5bhymYmpT/3uBMArCIo+ny3yJMgVWj/PcGahKANRwp/63hFEgtyn/vYCYBWMOS8t8aToHUkteOe/fuvaC4uLhdIB1mcSckAAvBpfy3AFKAVSj/vQObBKDHkvJfj1FgNSj/vYWaBKDHk/Jfj1FgNSj/vYWaBKDBk/Lf24Rzay0h/+8BMNGtLbYHSACZs4DyP0KzhPLf+2CQADJjSvnvfc45tkj57xi6tA1JABkwpfz3PuHcWKT8d4Ne+W1JAOkxpfz3Pt8cW6T8dwxdxoYkgPTwUP77k3OOrFL+O4JN24gEkAYiyn9t7gRagfLfH7hJAOXjSvnvT745skr57wg2S41IAOXDRPlvKX2CqUT57x/OJIBysKX89y/hnFim/HeCmrU2JIBjcaL8t5Y7gdSi/PcXZhLAsfhS/vubc7asU/7bgst2ZRJAGchyc3MXDB8+vK18nJMlfAQo//2NAQngaHwp//3NN1vWKf9tweWoMgngaNgo/x2lkT+NKP/9wTXVKgkgBQ3Kf/8Tzk4P+fn5O+fNm8etv3ZAs1mXBJACWF5e3saioqJ6NjFkdZ8QaNCgwcbPP/+8OW2qxs8AACAASURBVIDdPnVhvFkSgNkp8BN4JoTRGUACMDr8IAGYHX+eCGR4/EkAhicAFYDZCUACMDv+VACGx58EYHgCUAGYnQAkALPjTwVgePxJAIYnABWA2QlAAjA7/lQAhsefBGB4AlABmJ0AJACz408FYHj8SQCGJwAVgNkJQAIwO/5UAIbHnwRgeAJQAZidACQAs+NPBWB4/EkAhicAFYDZCUACMDv+VACGx58EYHgCUAGYnQAkALPjTwVgePxJAIYnABWA2QlAAjA7/lQAhsefBGB4AlABmJUAvQE8DKAfgCeA0jMB7wUwBMCDAArMgsTs0ZIAzIq/fPnoewB7SkjgIICaAL4DUAnALwBU5xHcZiUECcCseMto5UrfB8BxickupPBjCQEMA/CAeXCYPWISgHnxlwm/rYQITkgZ+gEANXj1Ny8ZSADmxTypAmQ9QKT/ocR9P6/+BuYCCcDAoJdM+FQVwKu/mTmgRk0CMDf4ybUA3vubmwMkAINjLypgLIDbeO9vbhZQAZgb+44NGzZ8cv369f8BYI65MJg9chKAmfHvCGD2wIEDMWjQIEHgKpKAmYlAAjAv7mryz549Gx07dsScOXNw1VUy/0kC5qUCFwFNi/lRkz85eJKAaWnwr/FSAZgT+3InP0nAnAQob6QkADPin3HykwTMSAISgJlxtjT5SQJmJgcVQHbH3dbkJwlkdzJQAZgVX0eTnyRgVpJQAWRnvF1NfpJAdiYFFYAZcfVk8pMEzEgWKoDsirOnk58kkF3JQQWQ3fH0ZfKTBLI7aagAsiO+vk5+kkB2JAkVQHbGMZDJTxLIzuShAoh3XAOd/CSBeCcLFUB2xS+UyU8SyK4kogKIZzxDnfwkgXgmDRVAdsQtEpOfJJAdyUQFEK84RmrykwTilTxUAPGOVyQnP0kg3klFBRCP+EV68pME4pFEVADxjFMsJj9JIJ7JRQUQ7bjFavKTBKKdTFQA8YpPLCc/SSBeSUYFEM14xXrykwSimVRUAPGIS1ZMfpJAPJKNCiBaccqqyU8SiFZyUQFEOx5ZOflJAtFOOiqAaMQnqyc/SSAaSUYFEM04GDH5SQLRTD4qgHDjEtjkX7NmDS6//HJ8/fXXx4x4xYoV6NKlC4qKirBy5Up07txZ/X+/Cr9F6Bey9u2SAOxj5lWLwCa/OJyJAOTvhw8fRk5OTiAEIP2RBLxKI3d2SADu8HPa2tPJf/rpp+PNN99EgwYNMHXqVHTr1g07d+7ESSedhOHDh2Pjxo3405/+pD4DLv+dNm0aduzYgX/84x9o3749MikAmagPPfQQKlasiFNPPRWjRo2C9OdFIQl4gaI7GyQAd/g5ae3p5BcHbr31VuTn5+OWW27BPffco67if/3rX/G73/0O119/vfq7kMOFF16IKVOm4Nprr8WECRMUASxZsiQtAWzZsgXNmjXDe++9h/r16+Ppp59WV2758aqQBLxC0pkdEoAz3Jy28nzyiyNjx47F+++/jyeffBIXXXQR/vznP+Pbb7/FAw88gLp16+Ljjz/GV199hUsuuUQpAykfffQRrr76amzatCktAQhJiFqYNWuWarNnzx5Uq1YN+/btQ6VKlZxicEw7koBnUNo2RAKwDZnjBr5MfvFGJL5c6RcsWIArr7wSL7zwAv7yl7/g73//O7p27Yply5YdswaQuiaQ7hZg2LBhGDx4MM4444yjBj137lzUrFnTMRDlNSQJeAqnZWMkAMtQuaro2+RPenX22Weryfruu++ioKAAzZs3R+/evbFu3Tr1+7KLgFYIYNKkSeqWYfbs2a4Gb7WxhyTQAsA4AC8BuAFANQD/DmBuwhf5XV9Z+wTwA4C7Aay16mc21SMB+B9N3ye/DKFnz574/PPP0atXL6UG5EfkvtwGtGvXzhEBbN26FU2bNsXSpUuRl5enFhpFFfhJCB6RQDMAywHcAmB6iUjqAeBOAJcAEDnzIQAhCXkmKn8TArjI/1SIXg8kAH9jEsjklyFMnDhRLfbJvX+tWrXURH3wwQexfft2nHjiiY4IQOzKhBwwYIBCSe77ZSHw/PPP9xU1D0hACOAdAFUSjjYHIAsZ9QDcDuBaAFcn/nZCiRrYn1AJPy+QGFRIAP4FO7DJ798QwrPskgSEAF4HUDcxgtR/PwCgMYDuKaOT2wBRBP69/RQelBl7JgH4ExhOfg9wdUECmQhAFMAfAFyVcPEkAHsTamG3B27HygQJwPtwcfJ7iKlDEshEAKIKPkpc8b8qWQe4Q16lAPBbD92OjSkSgLeh4uT3Fk9lzQEJZCIAMdkZgNwKyFOAHQDuKiGBDT64HnmTJADvQsTJ7x2Wx1hyQAI+epM9pkkA3sQy8MnfqlUr9XguqiX15SLxMelv2d/b8Z8kYActa3VJAOXj1BvAPwBYWRQKfPKLy7m5uSguLrYW5ZBqJXcYlvU39fd2XSMJ2EUsc30SQPn4yKpwDoC/JX7SEcFRk/+VV17BoEGDcODAAbRo0QL//Oc/cfLJJ6v36YcOHaq2255yyil45pln0LhxY3UF79GjB9au/fkltNR/r1q1Sv1N9uYnd+8999xz6NChg9rtN3nyZLRu3Vrt/pPNP+Xt2Pvggw/UC0LyVuCGDRvUxp9kkd2Ar776Kl566SVcd911OOecc9C9e3e1Y1Be9d2/f7/y89JLL1VN0o3h4MGDuP3229V+g0OHDqFJkyZq3J9++mnpGQOp/vbv319tWJLzBlq2bIl+/frhD3+QRXlgxowZCifBIdMuRJKAdyRAAigfy/9X8t7Lo4k/VQQwrBwiOGryb968Wb0g8+GHH6r35G+++WZFAjfddBPOO+88yISWjTnjxo1TE0vez89EAPKqrkwQeR1X3uqTdrIV9+2331ZXfrElkzTTjr3Vq1cr6T1y5EhFBDLpp0+frn7E344dO6rJd8EFFygSkf5kostuQSEWeZHos88+w5dffpl2DEIgMuFfe+01BZe8gJQkjeQhI6n+pt4CPPbYY+pVZWkvRQhPyEr2L+h2IZIEvCEBEkB6HL8H8MvEn/cBEKySRCCPjGbLK7EyiaSMHz8eogDkKpZaxowZo36X3FEn6kDezJPJKFfJdApACECu8Lt27VLmUnfvpU6oTDv2ZHLJpJZdfKI+nn32WQwZMkS9zZf0O+mrEMBvf/tb9fpwhQoV1NX8hBNOwHfffYeZM2emHcMnn3yiCEpITc4WEMUjJXWipyMAUSUXX3yxIqOffvpJvcEouxoXLlxoaReiwSRwPICDXlCAEwJoCaATgNYAzgZQA8BQAAO9cChiNo4AEAWQLAL6yw0bNmzVtWvXM0V2J8vjjz+uXrcVIkgtMuFE4qf+Xm4DRBHIxMhEAKlHeKVu3kmdUJl27G3btk3dMnzzzTfKpf/7v/9TE0sUgNiQ7cAi/0WpCAGIGvjiiy9K3Rc/5fdylU83BtkjIH9/6qmn1OSVWxbZlizEoFMA0pGoIyEPIUa5HRCFY2cXosRgxIgRO7Zv3y4bfkwqBwBsA/BZ4rXnVxP7H2xhYIcAmgIYXLK54pySVymnAFhYstPq45JnqFsAyETJtiIrbNUTgyqrANpUqFBhjlzVUxXAiy++eMxhGaIARBkkN9DIXnq5SsqVXSaV3CqIzJZSWFioNvPI7zPt3kslgEw79jIdAyZkIGsAQgYyaYUERLqLMpGSVADSl/ifbgyVK1cujbvYlFseOZxEDiOxQgCPPvoo9u7dq84YqFevHu69915122NlF6IoACGxn376SWTYz/cg5hS5MP1byfKMzMu2JbsZuwBYXaIM+iXmpSUkrBKAADwNwP+UvDI53JLleFdKrgEIPqnSP3Ux8MrEbUAFIQGRsbKQJgtvsn/+7rvvRo0aNdQRXHJfK1d8OUpr9OjR6jSeRYsWqY07DRs2VIdyVK9eHbfddptaF9ARgMh0qS8TRzb7pNuxpzsHMDVEcqWXtQAhqiuuuAIvv/yy2gQkNuQg0XRjkLWJH3/8EXfcIS/UAXfddZfaOShkkiSAVH/lVib5e6kv5CckuHv3bsyfPx916tSBlV2Ihk/+dLPrPgB/TWyBtnRskxUCEIaRrZWyh9qS0XjPfeW9XPHlKcBjmqcAV6YqAbmaylMAuXo2atRIyf6qVasqiSy3AnIfLifqyL24HLElpU+fPmrBTRb1ZPFrxIgRWL9+fUYFIO3kKiv1kgt65e3Ys0sAN9xwA6655hpFTkIu8tRBThGSkm4McnshxCW3G7J2IOcSiOpJfQqQ6u8jjzyinliknjp87rnnokqVKqrfZMm0C5GTP+MMS16s5VZdFHrGYoUAZpZIjLcMufInwbL1HkCFChVmp94O6ECP4t+DOA7ci3GnTH7ZzGPKBckudKIEfldy7sE1uoY6AhAWmQrg58sVSzoEOsadBOJAAJz8tiag7G24UbcwqCOARxJSWBYWWDIjINJr1uzZs9WaAIu3CHDy28ZTFuxls9ODmVrqCGB+4hHfPNvdm9kg9kogimHj5HcUlfaJcw/buSEA2S8tZ6V968gFMxuRBDyMOye/YzBrA1gGIONXXHQKQM5Kk1e7svE5v2NkLTQkCVgASVeFk1+HUMa/y3sCsqflRDcKQF51+9frbq78Ma6xLyRgZztt1LcMZ8oITn5P5ot2/uoUwE+JF2E88cZAI76QgNXttHHYMlxeTnDyezZTtPOXBOAZ1mkNeUoCqQrAiy3D4rW8nCPHistbePIqr3xIRL42JCXdttxMW43dQMrJ7wa9Y9qSADyF07kxzx4RphKAF1uGxUbbtm3V68fy9V/ZFyCv68qbena2GjuH5l8tOfm9QPEoGyQAzyF1btATJVCWANxuGZbXdufNm6deKZYiryXLoR1CAHa2GjuH5eeWnPxuESy3PQnAF1idG3V9fFhZAnC7ZVgIQPblyyYlKe+88476wpAQgJ2txs4hcXTqr5vuTGpLAohgtF2RgBMCyLS9Vvbxv/XWW5CtzFLkv7IvXwjA6VZjO5gbfKiHHZic1iUBOEXO53aOScAqAVjdMrx8+XJ06tRJHc0le/tlq64c7CEEkGlbrp2dhumw5OT3OcsAEoDvEDvvwBEJWCUAccvKlmGpJ1uS5diyBg0aKDKQbcCyEJi8N3e71bg8iDj5nSeOjZYkABtghVHVEQl46ajs+5fTguVJgHz9t6CgQJ1FMHbsWC+7OcoWJ79v0JY1TAIIDGrnHYVKAvJSkZziI4dxyC2AnGIkC4O1a8ur5N4XTn7vMc1gkQQQKNzOOwuVBJy7ba8lJ789vDyoTQLwAMSgTGQ1CXDyB5VGR/VDAggFduedZiUJcPI7TwiXLUkALgEMo3lWkQAnfxgpVNonCSBU+J13nhUkwMnvPAE8akkC8AjIMMzEmgQ4+cNImWP6JAFEIgzOnYglCXDyOw+4xy1JAB4DGoa5WJEAJ38YKZK2TxJApMLh3JlYkAAnv/MA+9SSBOATsGGYjTQJcPKHkRLaPkkAWojiVSGSJMDJH9kkIgFENjTOHYsUCXDyOw9kAC1JAAGAHEYXkSABTv4wQm+rTxKALbjiVTlUEuDkj0WykABiESbnToZCApz8zgMWcEsSQMCAh9FdoCTAyR9GiB33SQJwDF28GgZCApz88UoK8EzA2AXMjcO+kgAnv5vQhNaWCiA06MPp2BcS4OQPJ5ge9EoC8ADEuJnwlAQ4+eMW/qP8JQHEOnzOnfeEBDj5nQcgIi1JABEJRBhuuCIBTv4wQuZ5nyQAzyGNl0FHJMDJH68gZ/CWBJA1oXQ+EFskwMnvHOgItiQBRDAoYbhkiQQ4+cMIja99kgB8hTdexjOSACd/vIJp0VsSgEWgTKlWLglw8mdt+EkAWRta5wM7igQ4+Z0DGYOWJIAYBCkMFxUJDBw4EIMGDZL+rwIwJwxH2KevCJAAfIU33sY7nnrqqZO2b99+Cyd/vAPJx4BZGz/fB6a9QvjuATvwEwFtfCtoetca8NN72vYdAcbXd4hD7UAbXxJAqPEJvXNtgoTuIR1wg4A2viQAN/DGv602QeI/RKNHoI0vCcDo/IA2QcyGJ/aj18aXBBD7GLsagDZBXFln47AR0MaXBBB2iMLtX5sg4brH3l0ioI0vCcAlwjFvrk2QmI/PdPe18SUBmJ0i2gQxG57Yj14bXxJA7GPsagDaBHFlnY3DRkAbXxJA2CEKt39tgoTrHnt3iYA2viQAlwjHvLk2QWI+PtPd18aXBGB2imgTxGx4Yj96bXxJALGPsasBaBPElXU2DhsBbXxJAGGHKNz+tQkSrnvs3SUC2viSAFwiHPPm2gSJ+fhMd18bXxKA2SmiTZAUeN4DMBTAy4nfySlCDwM4H4CcMPQQgCMAtgO4E8BXAI4HMAZAUwCVAHwCoCeAH8yGPbDRa+NLAggsFpHsSJsgKV73AnAJgBsTv/sHgPUAJgJYA+DXADYA+HOCEIQUOicm/JWJNn0AvFlyBNmKSKKRfU5p40sCyL6g2xmRNkFSjJ0G4DMAtQHsA/A1gItLJvSlAG4AcHWi7i8A7ABwUsm5gxcCmA7g7hLymAdgrx3nWNc1Atr4kgBcYxxrA9oEKTM6OTh0PICNAAoAtAEgV/V+JVf6L8vU7VAy8bcmVMBfAFwA4CUA/0EiCCxntPElAQQWi0h2pE2QMl53AdApIfW/BfA0ADlUVH4vawKZyi8BvACgMEEekQQky5zSxpcEkGURtzkcbYKUsSeyfh2AnQAuA7ANQM2SW4CPAbQqIYOixC2BqAIhhB4AjgMwOmHn2USdYTb9ZHVnCGjjSwJwBmy2tNImSDkDHQugFoDLU/4mC37yREDKocRC4AcA6gCQ+jUAdfqQrCHczqcAgaWPNr4kgMBiEcmOtAlSxmtZ4JsP4H8Si3qRHBSdKkVAG18SgNnZok2QFHgeBNC9RPI/w3v42CSNNr4kgNjE0hdHtQniS680GhQC2viSAIIKRTT70SZINN2mVxYR0MaXBGARySytpk2QLB23KcPSxpcEYEoqlD9ObYKYDU/sR6+NLwkg9jF2NQBtgriyzsZhI6CNLwkg7BCF2782QcJ1j727REAbXxKAS4Rj3lybIDEfn+nua+NLAjA7RbQJYjY8sR+9Nr4kgNjH2NUAtAniyjobh42ANr4kgLBDFG7/2gQJ1z327hIBbXxJAC4RjnlzbYLEfHymu6+NLwnA7BTRJojZ8MR+9Nr4kgBiH2NXA9AmiCvrbBw2Atr4kgDCDlG4/WsTJFz32LtLBLTxJQG4RDjmzbUJEvPxme6+Nr4kALNTRJsgZsMT+9Fr40sCiH2MbQ2gd+LoLjnF94nEMV2SA/cCGAJADv2Q035ZsgMBEkB2xNGzUVQG8H3JUd57So7yPpg40PO7xFd75Liv6gB2e9YbDYWNAAkg7AhEsH+50supvXJar0x2IYUfAchJvQ9E0F+65BwBEoBz7LK2pUx4Oc77hJQRHkic3Murf3aFnQSQXfH0bDSiAmQ9QD7YKcd4y30/r/6ewRsZQySAyIQiWo6kqgBe/aMVGy+9IQF4iWaW2UquBfDeP8sCmzIcEkD2xtb1yEQFyFd7buPKv2sso2qABGAjMpXz8vJWFxUV1bPRhlUNRiAvL29TUVHRmRGGgARgIzjd2rdvP7KwsLCqjTasaigCEydOxH333bewuLhYPpIa1UICsBqZ3Nzc+QUFBZfdeuutVpuwnsEIdOjQYWdhYWEvABMiDAMJwGJw5H54165du1C5svxfFiKQHoHdu3ejSpUqUkH+J8rvTpAALCZyt/z8/JFz586l/LcImMnVYiL/JUQkACuJSvlvBSXWSSIQE/lPArCYspT/FoFiNSBG8p8EYDFhKf8tAsVqQEL+LyguLm4XAzx4C6ALEuW/DiH+PRWBGMl/KgALqUv5bwEkVvkZgZjJfxKAhcSl/LcAEqv8jEDM5D8JQJe4lP86hPj3GMt/EoAmfSn/Ob8tIxBD+U8C0ESX8t9y+rNiDOU/CSBT2lL+c1LbQSBmq//JofExYJogU/7byX7D68ZU/lMBZMhbyn/DJ7Wd4cdU/pMA0gWZ8t9O+rNuTOU/CYDyn5PXLQIxlv8kgDTBvzU/P38Et/66nRpmtI+x/CcBlJeilP9mTFyvRhlj+e8JAewHcDKAI14BGrIdrv6HHIA4dR9z+e8JAXwF4CIA38YpcBl8pfzPkkAGMYyYy39PCGA+gKEA5gUBuN99iPwfPnz4Zd26dfO7K9rPAgRiLv89IYBHAOSUfEpavicf90L5H/cIBuh/Fsh/TwigJYCpJUcf1w8Qe7+6Siv/V6xYgS5duqCoqMivvgO126pVKyxdujTQPst25taHlStXonPnzq5i8tFHH2HgwIGYMWMGtm3bhtzcXMuYZIH894QAxMhMAG+VHIE83DJ6Eayok/+HDx9GTo6InfgXSfTi4uJQB+LWBy8I4KabbkKPHj3QsWNHbNmyxRYBZIH894wAmgJYDuAGAHNCzSrnnWeU/6kKYNWqVSpp5Oozbdo07NixA8899xw6dOigen/llVcwaNAgHDhwAC1atMA///lPrF27Fj179kTz5s2xYcMGLFmyBHPmzMFDDz2EihUr4tRTT8WoUaNw+umnI2n/6quvxssvv6z+Pn78eDz44IP4+OOPceWVV+Kpp55SfelslOejrG9MnjwZrVu3xtSpU1GnTp1S1Mrz/eSTT1bjHDp0qCLAU045Bc888wwaN26sVIRgIeOTkvrvTDiV9UEmc3lYfPDBB8fglnRW2vzxj3/ENddcg9dffx2HDh1SfrVt2xa//vWv0bdvX1x33XWq+uzZszFgwACIvfLKcccdZ4sAskT+e0YAYqgjgGkA/iemSiDj6n8qAaxZswYtW7bEpEmTcP3112PcuHFq8r799tvYvHkzzj//fHz44YeoWbMmbr75ZkUCMmlF8o4cOVIltFxtmjVrhvfeew/169fH008/rSaz/CTtv/baayqZZRKvX79e2T9y5Ahq1aqlZG+FChW0NsrzUa78devWxf798gT3XyWd73KVPO+88xQxSTsZr0y0ZcuWZSSATDil+pAJi9WrVx+FW6q/QgASByEzIQIhMyHJzz77DCNGjFB4ye+k/OlPf0LDhg3xX//1X54QQJbIf08JQIyJEhgM4BwAUwAsLFEFHwPYEvX3BHTyvywByNVTvhIkRe4j5Wq9adMmdaWWq6jcU6aW5GTYs2ePuopOmDBBXVVnzZqlqsnvq1Wrhn379mHdunW49NJLSyW6JLXcnz777LOqriTyiy++CJkcmWyk8zEdAaTzfcyYMWo8SV9F2Zx44olK+Xz66adpFYCM2YoPOixkkidxK0sAv/nNb1QcRCUdPHhQ+fXdd98pojz77LPx7bff4qSTTlLE9e677+KMM87whACyRP57TgBJcGVhsBOA1gDOBlAj8ahwYLnoR+SXmT77VZYALr/8cnz99dfKc0n05L8ff/xx9W+ZTGUJQG4RvvnmG/XrYcOGYfDgwcck5Ny5c9Vkv+qqq7Bx40ZVV6SxTABpI0Wkt1zZ33zzzYw20vmYjgDS+T5kyBAl8VPHJLcBogjEVrpbgFRcyuKU6oMOi1TcyhKAyH8h3mQRv0QZCEnKfX337t1x5plnonfv3li8eHHaTLNzC5BF8t83AojIlLbshvblH6sEIJNErs4i5csSQOqElAk8ZcoUdW9atsjEsUIAMikz2bBLAOl8FwUgqibpq6gUWRcQwhQf5DZHZLeUwsJC9OrVS/3eKgHosEgdR1kCEKUkSkRKUgEIufzyl79U2Lz66qvqFqt27dr485//7AkBZJH8JwEIAjr5L3WsEoDcR59zzjlqsUnk5t13340aNWqoe9TURN66dSuaNm2q7qHz8vLU1VyuhDLJrBKALBhmspGOAHbu3Inq1atj7969OP7440snRTrf5f5ZFi/lii99jh49Wt3CLFq0SElsudrKVVhs3nbbbWpMOgJI9WH79u2Wx1GWAC644AKF2RVXXIGXXnpJqSXBT4oQVaNGjVC1alUsWLBAxSFdsaMAskj+kwAAWHr5xyoBCKLTp09XTwFkVVoSUK6sX3311VEEIPVEJcjKtJRKlSqphUBZQLRKABdeeGFGG+kIQPrLz89XC4viq/SZLOX5LhNIJpfcCsj6haxVyHqEXFml9OnTRy22yX12165d1QKc2M6kAMr6IOSTDot0CuD9999Xtx/y97feeksRmjyNueSSS0rHI4QktuUpQdkixCNkLUVuzWRxVdYSZAE3HVlkmfwnAQDQyv+0lw3+IdIIyLpJu3bt8Ne//hXt27f3xNcsk/8kACvy35PMoZFAEXjkkUeU8pJbMFkA9Kpkmfw3ngAsyX+vkod24o1AFsp/4wmA8j/eczJQ77NQ/ptNAJT/gc6f2HeWhfLfaAKg/I/9lAxuAFkq/40mAMr/4OZP7HuS9x569+69oLi4uF3sB3P0AFx/GSiWeFD+xzJsoTmdpfLfWAVA+R/aVIpfx1ks/40lAMr/+M3D0DzOYvlvJgFQ/oc2l2LZcUL+3wNgYiwHkNlp49YAKP+zMIv9GlKWy38jFQDlv1+zJQvtZrn8N48AKP+zcJb6OKQsl//GEQDlv4+TJdtMGyD/jSMAyv9sm6U+jscA+W8WAVD++zhbstC0AfLfKAKg/M/CSerXkAyR/0YRAOW/X7MlC+0aIv/NIQDK/yycpT4OyRD5bwwBUP77OFmyzbRB8t8YAqD8z7ZZ6uN4DJL/ZhBAbm7uguHDh7eVD1KyEAEdAgbJfyMIgPJfl/H8eykChsl/IwiA8p8T3DIChsn/7CcAyn/Luc+KP38xaee8efOydetveTHO7u3AeXl5G4uKiuoxu4mAFQQaNGiw8fPPP28OYLeV+llQJ7sJIAsCFPYQtAkStoPs3xUC2vhWcGWejeOOgDZB4j5Aw/3XxpcEYHaGaBPEbHhiP3ptfEkAsY+xxoULGAAAEoNJREFUqwFoE8SVdTYOGwFtfEkAYYco3P61CRKue+zdJQLa+JIAXCIc8+baBIn5+Ex3XxtfEoDZKaJNELPhif3otfElAcQ+xq4GoE0QV9bZOGwEtPElAYQdonD71yZIuO6xd5cIaONLAnCJcMybaxMk5uMz3X1tfEkAZqeINkHMhif2o9fGlwQQ+xi7GoA2QVxZZ+OwEdDGlwQQdojC7V+bIOG6x95dIqCNLwnAJcIxb65NkJiPz3T3tfElAZidItoEMRue2I9eG18SQOxj7GoA2gRxZZ2Nw0ZAG18SQNghCrd/bYKE6x57d4mANr4kAJcIx7y5NkFiPj7T3dfGlwRgdopoE8RseGI/em18SQCxj7GrAWgTxJV1Ng4bAW18SQBhhyjc/rUJEq577N0lAtr4kgBcIhzz5toEifn4THdfG18SgNkpok0Qs+GJ/ei18SUBxD7GrgagTRBX1tk4bAS08SUBhB2icPvXJki47rF3lwho40sCcIlwzJtrEyTm4zPdfW18SQBmp4g2QcyGJ/aj18aXBBD7GLsagDZBXFln47AR0MaXBBB2iMLtX5sg4brH3l0ioI0vCcAlwjFvrk2QmI/PdPe18SUBmJ0i2gQxG57Yj14bXxJA7GPsagDaBHFlnY3DRkAbXxJA2CEKt39tgoTrHnt3iYA2viQAlwjHvLk2QWI+PtPd18aXBGB2imgTxGx4Yj96bXxJALGPsasBaBPElXU2DhsBbXxJAGGHKNz+tQkSrnvs3SUC2viSAFwiHPPm2gSJ+fhMd18bXxKA2SmiTRCz4Yn96LXxJQHEPsauBqBNEFfW2ThsBLTxJQGEHaJw+9cmSLjusXeXCGjjSwJwiXDMm2sTJObjM919bXxJAGaniDZBzIYn9qPXxpcEEPsYuxqANkFcWWfjsBHQxpcEEHaIwu1fmyDhusfeXSKgjS8JwCXCMW+uTZCYj89097XxJQGYnSLaBDEbntiPXhtfEkDsY+xqANoEcWWdjcNGQBtfEkDYIQq3f22ChOsee3eJgDa+JACXCMe8uTZBYj4+093XxpcEYHaKaBPEbHhiP3ptfEkAsY+xqwFoE8SVdTYOGwFtfEkAYYco3P61CRKue+zdJQLa+JIAXCIc8+baBIn5+Ex3XxtfEoDZKaJNELPhif3otfElAcQ+xq4GoE0QV9bZOGwEtPElAYQdonD71yZIuO6xd5cIaONLAnCJcMybaxMk5uMz3X1tfEkAZqeINkHMhif2o9fGlwQQ+xi7GoA2QVxZZ+OwEdDGlwQQdojC7V+bIOG6x95dIqCNLwnAJcIxb65NkJiPz3T3tfElAZidItoEMRue2I9eG18SQOxj7GoA2gRxZZ2Nw0ZAG18SQNghCrd/bYKE6x57d4mANr4kAJcIx7y5NkFiPj7T3dfGlwRgdopoE8RseGI/em18SQCxj7GrAWgTxJV1Ng4bAW18SQBhhyjc/rUJEq577N0lAtr4kgBcIhzz5toEifn4THdfG18SgNkpok0Qs+GJ/ei18SUBxD7GrgagTRBX1tk4bAS08SUBhB2icPvXJki47rF3lwho40sCcIlwzJtrEyTm4zPdfW18SQBmp4g2QcyGJ/aj18aXBBD7GLsagDZBXFln47AR0MaXBBB2iMLtX5sg4brH3l0ioI0vCcAlwjFvrk2QmI/PdPe18SUBmJ0i2gQxG57Yj14bXxJA7GPsagDaBHFlnY3DRkAbXxJA2CEKt39tgoTrHnt3iYA2viQAlwjHvLk2QWI+PtPd18aXBGB2imgTxGx4Yj96bXxJALGPsasBaBPElXU2DhsBbXxJAGGHKNz+tQkSrnvs3SUC2viSAFwiHPPm2gSJ+fhMd18bXxKA2SmiTRCz4Yn96LXxJQHEPsauBqBNEFfW2ThsBLTxJQGEHaJw+9cmSLjusXeXCGjjSwJwiXDMm2sTJObjM919bXxJAGaniDZBzIYn9qPXxpcEEPsY2xpAbwAPA+gH4AkAyQS5F8AQAA8CKLBlkZWjjAAJIMrRCcG3ygC+B7CnhAQOAqgJ4DsAlQD8AkB1ALtD8Itd+oMACcAfXGNtVa70fQAcl5jsQgo/lhDAMAAPxHpkdL4sAiQA5sQxCMiE31Yi+U9I+csBADV49c+6bCEBZF1IvRmQqABZDxDpfyhx38+rvzfYRskKCSBK0YiQL6kqgFf/CAXGY1dIAB4Dmk3mkmsBvPfPpqgePRYSQMxjK1fqWmV+qng0JlkDuBbAjJLFP1EBXpRdADaX+eFTBS+QdWaDBOAMt9BaXQjgSgAdATQG4NVkD21AAIQU1gKYA+A1ACvCdMawvkkAMQi4TPjkz1mp/p5yyimoVavWUT/VqlWL7JB27NiBzZs3H/Xzww8/lPX3iwQRCBnID4t/CJAA/MPWteXbAfQFkJe0VK9ePVx55ZXqp02bNqhatarrTsI2sHPnTixevBivvfaa+tm0aVOqS0UAhgIYE7afWdo/CSCCge2cmPgXiG8XXnhh6aS/6KKLIuiuty4tW7aslAxWrCi9G3g/QQQvedub8dZIABFKgfzExG8rPjVq1Ah9+/ZFjx49IuRisK6MGzcOQ4cOxbp165IdL0wQQWGwnmRtbySAiIT2vwE8Jr7IPf3999+Pe++V/TcsgsCIESMUEcj6QaLcD+BvRMc1AiQA1xC6NzAagNzvY+DAgejfvz8qVZIX8FhSETh06BAeffRRDBo0KPlrWRe4gyi5QoAE4Ao+d41lRX88gDYy4UXudu3a1Z1FA1o///zz6rZICAHAYgDdS37kyQGLfQRIAPYx86SF3Oe/INttmzRpgvHjx6vFPhZrCMjiYPfu3fHJJ59Ig60AbgIg6wMs9hAgAdjDy5Pa9RNXrtrXXnutmvxVqmTD+zyeYGPZyK5duxQJzJghLyriW1FSADZYNsCKggAJIOA8yElM/os7deqEmTNnBtx99nV3zTXX4NVXX5WBvZsggcPZN0rfRkQC8A3a8g2L7O/SokUL9fJL5cryKj+LGwR2796tXopatWqVmJmSuB1wY9KktiSAAKMtb7TdL6/qyuRv1qxZgF1nd1cff/wxfvOb30BeNU48TpU3KFn0CJAA9Bh5UkN21b0ilubMmaPe7GPxFgF5jbhjR9kjpcofErsYve0k+6yRAAKKqbzTesGwYcPQu7cctMPiBwIFBQXo00eOM4S8OszHKnqQSQB6jFzXuKvkcd8zjRs3xqeffuraGA1kRuBXv/oV1q6V3cW4G8CzxCsjAiQAnxOkUk5OzpeHDx/+t0mTJuHmm2/2uTuanzx5Mm655Rbk5ORsOXz48BmJMw0JTPkIkAB8zgx5b3VA27ZtsWDBAp+7ovkkApdddhkWLlTvBclHTgYSmbQIkAB8TA45maMYQM78+fMhSckSDAKC9+9//3vpTN4JyAWgHg+wHIMACcDHpOgGYEL79u1RWMjdqz7iXK7p/Px8zJs3T/52K4CJQfcfk/5IAD4G6kUAN8hW1nvuucfHbmi6PARGjhyJXr16yZ+mAfgjUSoXARKAT4lxXMWKFX84cuTI8V988QXOPPNMn7qh2XQIbNy4EWeddRYqVqx48MiRI6ckPm9GwP6FQEUAe0sOWDkxEyj8OrCzlJEXUV6++OKL8c477zizwFauEWjdujXefVe2COC65ItYro1mj4HaAJaVnLd4OgnA+6D+E8BtgwcPxgMP8Ita3sNrzeKQIUPQr5986RxjAfS01sqYWu0TR9C1IwF4H/MvhVlXr17Nd/69x9ayxTVr1uCcc86R+l8BkHcCWP6FwODEU5IHSQDep4V8TjvnwIEDOP7447237sLi8uXL1ZmD27Ztw8GDB3HyySerY7Zke7KUVq1aYenSpS56iE5TGd8JJ6iPHMvjQPncOcu/EJCzE24s+cjMchKAt2khn+r69rTTTsPWrXJYTbRKnTp1MG3aNMj9sZRFixapzUmyWFmjRg3k5uaiuFheX8iOUrNmTXz33XcyGLnnLT1VNGV0sif7T4kvIGfHoPWjuK/kBKXfAbhGV5WLgDqEjv27nOe/4txzz8WHH35ov7WPLX788UfI14Ref/11yNuJySJKRa6U3bp1g7xKK+QwdepUtYApp/Hm5OSods888wxkT8P777+vTuO56qqrMHfuXOzfv1/97dJLL/XRe2emzzvvPKxcuVIay+Yg2SSULDLx5TRmOWFYFMJJznqIXSvZMimPRluWPKb+WOc9CUCH0LF/vxrAq3JVla2/USuPP/44Hn74YVxxxRXo0KGD+m/t2nJxhLry161bV03oL7/8EjJ55KAN+Z0cWiqTXD7cIROqZcuWSknIsWZCFg8++CA+++yzqA1XbRGWrcIA5B5nVsmVPjnxZdugPAeXn/4A/h455713SK78f5X3UxLfYtT2QALQQnRMhX+XXWh33HEHRo0aZb91AC1kcsvbiSL/5QreuXNnPPnkk/j+++9LCWDMmDHqvL1Zs2TOAKISTjzxRHXohtwu/Pa3v4V81qtChQrqhF5RECK15RYiSuXOO+/E6NFy8jr+X+K14OTET17xv0/8Pkpue+GLPOf/t5KrfVMAIve6AFgNQB6LaK/8SQdIAPZDIZtPHhowYEDqGfb2rQTUQj7OKScSy1kF8umxpAKQR2iyrVYOLU0WuQ0QRbBnzx784Q9/UESQ+jdRBg0bNgzIc2vdyLcWRPEAWAPgbACpq7JHSjYMyUTJxiKfdN8GQGSZvIwiBydmXPArDwQSgP3UiKwC2L59u/r4pqxPpBbZr3DDDTfguuuuO0oBvPLKK5g9e7aqum/fPvXEQE7j/fzzz9X9fuIIrlIFILcQv/zlL+0j5mMLCwrg/wBU99GFWJsmAdgPX2TXAOQKLYt/IuvlDD0psk5x4403Qs7al8+SVa9eHXv37lVyvnnz5uqKf/rppysZPWHCBHXbIHYuuOACRQ6yhvDyyy9DFI88d49a0awBiAKQYsoagO3wkABsQ4bIPgWQocjkl09sbdmyBT/99BPksaDIZFkQlCK76NavX4/p06djw4YNkFsBeQogh5k+++yzqF+/viIAUQxyJLcQghDGc889h0suucQ+Wj63sPAUQJ4EyFOAk312JZbmSQD2wxbp9wDsD+fYFkIAsnBYVFTkhTlfbfA9AHfwkgCc4RfZNwGdDefoVnEhAL4J6D7aJABnGHIvgDPcPG3FvQDu4SQBOMOQuwGd4eZpK+4GdA8nCcAZhjwPwBlunrbieQDu4SQBOMOQJwI5w82zVjwRyBsoSQDOceSZgM6xc92SZwK6hlAZIAE4x5GnAjvHznVLngrsGkISgEsIS78L8MYbb6Bdu4wnL7nsis1TEZCPsCTw5ncBXKYGFYA7APllIHf4OWrNLwM5gq3cRiQAd1jy24Du8LPdmt8GtA1ZxgYkAPd48uvA7jG0bIFfB7YMlaWKJABLMGkrrSjZh3OB7Lnv3bu3tjIrOEOgoKAAffrIeR/q6C85AozFJQIkAJcAJppfm/wwhWy/lePCWLxFQI79kq2/iSIvYs3wtgczrZEAvIv7UDmAUrbVLlmyBE2byklNLF4gIO/8t2nTJnlAyWOJD154Ydp4GyQAb1PgBTmbrUWLFli8eDEqV5bzKVncILB79241+eXgEgBTANzkxh7bHo0ACcDbjMgBsBjAxfIhjpkzZ3pr3UBrcijJq6/KcXeQjwC2SRzuYSAS/gyZBOA9rvUTJFBbjtSWQzerVKnifS9ZblHOJpRvE8jJxfIhlsTkl6/dsHiIAAnAQzBTTMkxzXI7ULNJkyaKBORkXhZrCMj5hTL5P/nkE2kgn18S2b/QWmvWsoMACcAOWvbqngVAztxuU6lSJfXhja5du9qzYGDt559/Hj169FAnESeUVHcA/zqf3EBM/BwyCcBPdH+2LV+tuF3+jxzO2b9/fwghsByNgEx4OcxUPmSaKGMA3EGc/EWABOAvvknrcjKtPL5SR3P37dsXvXr1CqbnGPTyxBNP4LHHHsPmzaXf9pTv+f0tBq7H3kUSQHAhzE88v1Zf7WzUqJEiApG7pha5LZKPk65bty4Jgdzny/sUhaZiEvS4SQBBIw50ThCBfF9ALQ7Km4PyI5/uyvYiHx+Vt/rkRxb7EkVe7ZWJ/1K2jz9q4yMBhBcRWRfoCyAv6UK9evVKyUBefqlatWp43nnUs3xgVF6KSk56+XRZSpEPD8jEl/t9lhAQIAGEAHqZLmXjQPJHnhyUFvlYp6wZpP7Iq8ZRLfItQbmPT/2Rj5OWKbKiL9/zTv5EdThG+EUCiFaY5WUBIQPZ9dIYQDa8QbSr5PXotYnv1cukL9X90YLeTG/+Pz3w2eVC6lDxAAAAAElFTkSuQmCC;" vertex="1" parent="1">
                    <mxGeometry x="270" y="50" width="356.6" height="950" as="geometry"/>
                </mxCell>
            </root>
        </mxGraphModel>
    </diagram>
</mxfile>